<svg xmlns="http://www.w3.org/2000/svg" xmlns:xlink="http://www.w3.org/1999/xlink" width="196" zoomAndPan="magnify" viewBox="0 0 147 140.249994" height="187" preserveAspectRatio="xMidYMid meet" version="1.0"><defs><clipPath id="4f4e3a845f"><path d="M 0.390625 0 L 146.609375 0 L 146.609375 139.503906 L 0.390625 139.503906 Z M 0.390625 0 " clip-rule="nonzero"/></clipPath><clipPath id="47e0dfbdf9"><path d="M 45.597656 41.851562 L 101.550781 41.851562 L 101.550781 97.800781 L 45.597656 97.800781 Z M 45.597656 41.851562 " clip-rule="nonzero"/></clipPath></defs><g clip-path="url(#4f4e3a845f)"><path fill="#ffffff" d="M 0.390625 0 L 146.609375 0 L 146.609375 139.503906 L 0.390625 139.503906 Z M 0.390625 0 " fill-opacity="1" fill-rule="nonzero"/><path fill="#e2a9f1" d="M 0.390625 0 L 146.609375 0 L 146.609375 139.503906 L 0.390625 139.503906 Z M 0.390625 0 " fill-opacity="1" fill-rule="nonzero"/></g><g clip-path="url(#47e0dfbdf9)"><path fill="#d2b6d7" d="M 101.550781 69.828125 C 101.550781 70.742188 101.503906 71.65625 101.414062 72.570312 C 101.324219 73.480469 101.191406 74.386719 101.011719 75.285156 C 100.832031 76.183594 100.613281 77.070312 100.34375 77.949219 C 100.078125 78.824219 99.769531 79.6875 99.421875 80.53125 C 99.070312 81.378906 98.679688 82.207031 98.246094 83.015625 C 97.816406 83.820312 97.34375 84.605469 96.835938 85.367188 C 96.328125 86.128906 95.78125 86.867188 95.199219 87.574219 C 94.617188 88.28125 94.003906 88.960938 93.355469 89.609375 C 92.707031 90.257812 92.03125 90.871094 91.320312 91.453125 C 90.613281 92.03125 89.878906 92.578125 89.117188 93.085938 C 88.355469 93.597656 87.570312 94.066406 86.761719 94.5 C 85.953125 94.929688 85.125 95.320312 84.28125 95.671875 C 83.433594 96.023438 82.570312 96.332031 81.695312 96.597656 C 80.820312 96.863281 79.929688 97.085938 79.03125 97.265625 C 78.132812 97.441406 77.226562 97.578125 76.316406 97.667969 C 75.40625 97.757812 74.492188 97.800781 73.574219 97.800781 C 72.660156 97.800781 71.746094 97.757812 70.832031 97.667969 C 69.921875 97.578125 69.015625 97.441406 68.117188 97.265625 C 67.21875 97.085938 66.332031 96.863281 65.453125 96.597656 C 64.578125 96.332031 63.714844 96.023438 62.867188 95.671875 C 62.023438 95.320312 61.195312 94.929688 60.386719 94.5 C 59.578125 94.066406 58.792969 93.597656 58.03125 93.085938 C 57.269531 92.578125 56.535156 92.03125 55.828125 91.453125 C 55.117188 90.871094 54.441406 90.257812 53.792969 89.609375 C 53.144531 88.960938 52.53125 88.28125 51.949219 87.574219 C 51.367188 86.867188 50.824219 86.128906 50.3125 85.367188 C 49.804688 84.605469 49.335938 83.820312 48.902344 83.015625 C 48.46875 82.207031 48.078125 81.378906 47.730469 80.53125 C 47.378906 79.6875 47.070312 78.824219 46.804688 77.949219 C 46.539062 77.070312 46.316406 76.183594 46.136719 75.285156 C 45.957031 74.386719 45.824219 73.480469 45.734375 72.570312 C 45.644531 71.65625 45.597656 70.742188 45.597656 69.828125 C 45.597656 68.910156 45.644531 67.996094 45.734375 67.085938 C 45.824219 66.171875 45.957031 65.265625 46.136719 64.367188 C 46.316406 63.46875 46.539062 62.582031 46.804688 61.707031 C 47.070312 60.828125 47.378906 59.96875 47.730469 59.121094 C 48.078125 58.273438 48.46875 57.445312 48.902344 56.640625 C 49.335938 55.832031 49.804688 55.046875 50.3125 54.285156 C 50.824219 53.523438 51.367188 52.789062 51.949219 52.078125 C 52.53125 51.371094 53.144531 50.691406 53.792969 50.046875 C 54.441406 49.398438 55.117188 48.78125 55.828125 48.203125 C 56.535156 47.621094 57.269531 47.074219 58.03125 46.566406 C 58.792969 46.058594 59.578125 45.585938 60.386719 45.15625 C 61.195312 44.722656 62.023438 44.332031 62.867188 43.980469 C 63.714844 43.628906 64.578125 43.320312 65.453125 43.054688 C 66.332031 42.789062 67.21875 42.566406 68.117188 42.390625 C 69.015625 42.210938 69.921875 42.074219 70.832031 41.984375 C 71.746094 41.894531 72.660156 41.851562 73.574219 41.851562 C 74.492188 41.851562 75.40625 41.894531 76.316406 41.984375 C 77.226562 42.074219 78.132812 42.210938 79.03125 42.390625 C 79.929688 42.566406 80.820312 42.789062 81.695312 43.054688 C 82.570312 43.320312 83.433594 43.628906 84.28125 43.980469 C 85.125 44.332031 85.953125 44.722656 86.761719 45.15625 C 87.570312 45.585938 88.355469 46.058594 89.117188 46.566406 C 89.878906 47.074219 90.613281 47.621094 91.320312 48.203125 C 92.03125 48.78125 92.707031 49.398438 93.355469 50.046875 C 94.003906 50.691406 94.617188 51.371094 95.199219 52.078125 C 95.78125 52.789062 96.328125 53.523438 96.835938 54.285156 C 97.34375 55.046875 97.816406 55.832031 98.246094 56.640625 C 98.679688 57.445312 99.070312 58.273438 99.421875 59.121094 C 99.769531 59.96875 100.078125 60.828125 100.34375 61.707031 C 100.613281 62.582031 100.832031 63.46875 101.011719 64.367188 C 101.191406 65.265625 101.324219 66.171875 101.414062 67.085938 C 101.503906 67.996094 101.550781 68.910156 101.550781 69.828125 Z M 101.550781 69.828125 " fill-opacity="1" fill-rule="nonzero"/></g><path fill="#fae275" d="M 62.246094 66.058594 L 66.066406 61.085938 C 66.472656 60.558594 67.230469 60.457031 67.757812 60.863281 C 67.820312 60.914062 67.878906 60.964844 67.929688 61.023438 C 66.914062 62.484375 63.109375 67.816406 61.273438 68.457031 L 58.066406 65.457031 C 57.578125 65 57.554688 64.234375 58.007812 63.75 C 58.027344 63.730469 58.046875 63.710938 58.0625 63.691406 C 58.742188 64.296875 59.964844 65.375 60.753906 65.964844 C 61.890625 66.8125 62.246094 66.058594 62.246094 66.058594 Z M 62.246094 66.058594 " fill-opacity="1" fill-rule="evenodd"/><path fill="#b4e2ed" d="M 75.742188 85.300781 C 75.925781 85.480469 76.054688 85.597656 76.109375 85.648438 C 76.535156 86.042969 76.46875 86.507812 75.59375 86.601562 L 73.949219 86.78125 Z M 75.742188 85.300781 " fill-opacity="1" fill-rule="evenodd"/><path fill="#b4e2ed" d="M 73.597656 86.820312 L 72.628906 86.921875 C 71.78125 87.015625 70.597656 86.734375 70.082031 86.296875 C 69.921875 86.15625 69.109375 85.464844 68.167969 84.433594 C 67.699219 83.917969 67.960938 83.308594 68.875 83.21875 L 71.96875 82.910156 C 72.589844 82.851562 73.347656 83.082031 73.882812 83.429688 Z M 73.597656 86.820312 " fill-opacity="1" fill-rule="evenodd"/><path fill="#f6b0ce" d="M 77.652344 83.726562 L 91.761719 56.796875 C 92.125 56.101562 91.8125 55.207031 91.0625 54.816406 L 90.152344 54.339844 C 89.402344 53.949219 88.492188 54.195312 88.125 54.894531 L 74.019531 81.824219 L 73.574219 87.089844 Z M 77.652344 83.726562 " fill-opacity="1" fill-rule="evenodd"/><path fill="#eef2f9" d="M 84.714844 70.25 C 85.519531 72.101562 86.402344 73.90625 87.359375 75.617188 C 89.410156 79.296875 91.808594 82.558594 94.558594 85.007812 C 95.734375 86.054688 94.757812 87.824219 92.167969 88.195312 C 85.207031 89.191406 78.21875 89.980469 71.242188 90.875 C 69.523438 91.09375 69.011719 90.828125 66.777344 89.207031 C 57.925781 82.789062 54.136719 64.292969 52.136719 52.308594 C 51.867188 50.699219 53.046875 49.324219 54.773438 49.277344 L 75.695312 48.710938 C 77.289062 48.667969 78.8125 49.878906 79.082031 51.394531 C 79.84375 55.65625 81.058594 60.464844 82.730469 65.195312 L 74.019531 81.824219 L 73.882812 83.429688 C 73.347656 83.082031 72.589844 82.851562 71.96875 82.910156 L 68.875 83.21875 C 67.960938 83.308594 67.699219 83.917969 68.167969 84.433594 C 69.109375 85.464844 69.921875 86.15625 70.082031 86.296875 C 70.597656 86.734375 71.78125 87.015625 72.628906 86.921875 L 73.597656 86.820312 L 73.574219 87.089844 L 73.949219 86.78125 L 75.59375 86.601562 C 76.46875 86.507812 76.535156 86.042969 76.109375 85.648438 C 76.054688 85.597656 75.925781 85.480469 75.742188 85.300781 L 77.652344 83.726562 Z M 69.386719 76.445312 C 70.019531 77.636719 70.554688 78.523438 70.667969 78.714844 C 71.085938 79.40625 70.773438 80.03125 69.953125 80.105469 L 66.824219 80.378906 C 65.941406 80.457031 64.808594 79.9375 64.390625 79.234375 C 64.265625 79.019531 63.621094 77.933594 62.902344 76.5 C 62.523438 75.746094 62.964844 75.011719 63.851562 74.953125 L 64.011719 74.945312 L 63.339844 74.3125 C 62.851562 73.855469 62.828125 73.09375 63.28125 72.605469 C 63.738281 72.121094 64.5 72.09375 64.988281 72.546875 L 67.519531 74.914062 L 71.339844 69.941406 C 71.746094 69.414062 72.503906 69.316406 73.03125 69.71875 C 73.558594 70.125 73.660156 70.886719 73.253906 71.414062 Z M 57.242188 58.121094 L 54.820312 55.855469 C 54.332031 55.402344 54.308594 54.636719 54.761719 54.148438 C 55.21875 53.664062 55.984375 53.636719 56.46875 54.09375 L 59 56.457031 L 62.820312 51.484375 C 63.226562 50.957031 63.984375 50.859375 64.511719 51.261719 C 65.042969 51.667969 65.140625 52.429688 64.734375 52.957031 L 62.628906 55.699219 C 62.910156 55.96875 63.105469 56.332031 63.152344 56.734375 C 63.179688 56.976562 63.324219 58.214844 63.601562 59.753906 C 63.757812 60.601562 63.234375 61.292969 62.457031 61.300781 L 59.414062 61.328125 C 58.554688 61.339844 57.65625 60.621094 57.507812 59.785156 C 57.402344 59.171875 57.3125 58.601562 57.242188 58.121094 Z M 59.070312 66.398438 L 58.066406 65.457031 C 57.578125 65 57.554688 64.234375 58.007812 63.75 C 58.464844 63.261719 59.226562 63.238281 59.714844 63.691406 L 62.246094 66.058594 L 66.066406 61.085938 C 66.472656 60.558594 67.230469 60.457031 67.757812 60.863281 C 68.285156 61.269531 68.386719 62.027344 67.980469 62.558594 L 65.152344 66.238281 C 65.210938 66.34375 65.257812 66.457031 65.292969 66.574219 C 65.777344 68.113281 66.25 69.386719 66.339844 69.628906 C 66.65625 70.472656 66.222656 71.164062 65.4375 71.203125 L 62.328125 71.355469 C 61.457031 71.398438 60.425781 70.730469 60.132812 69.890625 C 59.59375 68.347656 59.203125 67.007812 59.128906 66.753906 C 59.09375 66.632812 59.074219 66.511719 59.070312 66.398438 Z M 59.070312 66.398438 " fill-opacity="1" fill-rule="evenodd"/><path fill="#fae275" d="M 66.839844 77.585938 L 63.339844 74.3125 C 62.851562 73.855469 62.828125 73.09375 63.28125 72.605469 C 63.738281 72.121094 64.5 72.09375 64.988281 72.546875 L 67.519531 74.914062 L 71.339844 69.941406 C 71.746094 69.414062 72.503906 69.316406 73.03125 69.71875 C 73.558594 70.125 73.660156 70.886719 73.253906 71.414062 L 68.621094 77.441406 C 68.414062 77.710938 68.101562 77.878906 67.765625 77.910156 C 67.425781 77.9375 67.089844 77.820312 66.839844 77.585938 Z M 66.839844 77.585938 " fill-opacity="1" fill-rule="evenodd"/><path fill="#b4e2ed" d="M 69.386719 76.445312 C 70.019531 77.636719 70.554688 78.523438 70.667969 78.714844 C 71.085938 79.40625 70.773438 80.03125 69.953125 80.105469 L 66.824219 80.378906 C 65.941406 80.457031 64.808594 79.9375 64.390625 79.234375 C 64.265625 79.019531 63.621094 77.933594 62.902344 76.5 C 62.523438 75.746094 62.964844 75.011719 63.851562 74.953125 L 64.011719 74.945312 L 66.839844 77.585938 C 67.089844 77.820312 67.425781 77.9375 67.765625 77.910156 C 68.101562 77.878906 68.414062 77.710938 68.621094 77.441406 Z M 69.386719 76.445312 " fill-opacity="1" fill-rule="evenodd"/><path fill="#b4e2ed" d="M 62.628906 55.699219 C 62.910156 55.96875 63.105469 56.332031 63.152344 56.734375 C 63.179688 56.976562 63.324219 58.214844 63.601562 59.753906 C 63.757812 60.601562 63.234375 61.292969 62.457031 61.300781 L 59.414062 61.328125 C 58.554688 61.339844 57.65625 60.621094 57.507812 59.785156 C 57.402344 59.171875 57.3125 58.601562 57.242188 58.121094 L 58.320312 59.128906 C 58.570312 59.363281 58.90625 59.480469 59.246094 59.453125 C 59.585938 59.421875 59.898438 59.253906 60.105469 58.984375 Z M 62.628906 55.699219 " fill-opacity="1" fill-rule="evenodd"/><path fill="#fae275" d="M 58.320312 59.128906 L 54.820312 55.855469 C 54.332031 55.402344 54.308594 54.636719 54.761719 54.148438 C 55.21875 53.664062 55.984375 53.636719 56.46875 54.09375 L 59 56.457031 L 62.820312 51.484375 C 63.226562 50.957031 63.984375 50.859375 64.511719 51.261719 C 65.042969 51.667969 65.140625 52.429688 64.734375 52.957031 L 60.105469 58.984375 C 59.898438 59.253906 59.585938 59.421875 59.246094 59.453125 C 58.90625 59.480469 58.570312 59.363281 58.320312 59.128906 Z M 58.320312 59.128906 " fill-opacity="1" fill-rule="evenodd"/><path fill="#b4e2ed" d="M 65.152344 66.238281 C 65.210938 66.34375 65.257812 66.457031 65.292969 66.574219 C 65.777344 68.113281 66.25 69.386719 66.339844 69.628906 C 66.65625 70.472656 66.222656 71.164062 65.4375 71.203125 L 62.328125 71.355469 C 61.457031 71.398438 60.425781 70.730469 60.132812 69.890625 C 59.59375 68.347656 59.203125 67.007812 59.128906 66.753906 C 59.09375 66.632812 59.074219 66.511719 59.070312 66.398438 L 61.566406 68.730469 C 61.816406 68.964844 62.152344 69.078125 62.492188 69.050781 C 62.828125 69.023438 63.140625 68.855469 63.347656 68.585938 Z M 65.152344 66.238281 " fill-opacity="1" fill-rule="evenodd"/><path fill="#e178b8" d="M 88.050781 55.042969 C 88.222656 55.707031 88.578125 56.542969 89.277344 56.808594 C 89.941406 57.0625 89.265625 57.964844 88.289062 59.066406 C 87.488281 59.972656 86.484375 61.019531 85.867188 61.953125 C 84.492188 64.027344 75.75 81.402344 75.75 81.402344 L 74.53125 86.300781 L 73.574219 87.089844 L 74.019531 81.824219 Z M 88.050781 55.042969 " fill-opacity="1" fill-rule="evenodd"/><path fill="#e69b6b" d="M 68.621094 77.441406 C 68.414062 77.710938 68.101562 77.878906 67.765625 77.910156 C 67.425781 77.9375 67.089844 77.820312 66.839844 77.585938 L 66.390625 77.164062 C 67.667969 77.066406 68.769531 75.707031 68.769531 75.707031 L 73.355469 70.097656 C 73.578125 70.503906 73.554688 71.023438 73.253906 71.414062 Z M 68.621094 77.441406 " fill-opacity="1" fill-rule="evenodd"/><path fill="#e69b6b" d="M 67.519531 74.914062 C 67.519531 74.914062 66.628906 76.53125 63.265625 72.621094 C 63.273438 72.617188 63.277344 72.609375 63.28125 72.605469 C 63.734375 72.117188 64.5 72.09375 64.988281 72.546875 Z M 67.519531 74.914062 " fill-opacity="1" fill-rule="evenodd"/><path fill="#e69b6b" d="M 67.929688 61.023438 C 68.304688 61.449219 68.339844 62.089844 67.980469 62.558594 L 63.347656 68.585938 C 63.140625 68.855469 62.828125 69.023438 62.492188 69.050781 C 62.152344 69.078125 61.816406 68.964844 61.566406 68.730469 L 61.273438 68.457031 C 63.109375 67.816406 66.914062 62.484375 67.929688 61.023438 Z M 67.929688 61.023438 " fill-opacity="1" fill-rule="evenodd"/><path fill="#e69b6b" d="M 62.246094 66.058594 C 62.246094 66.058594 61.890625 66.8125 60.753906 65.964844 C 59.964844 65.375 58.742188 64.296875 58.0625 63.691406 C 58.523438 63.261719 59.246094 63.253906 59.714844 63.691406 Z M 62.246094 66.058594 " fill-opacity="1" fill-rule="evenodd"/><path fill="#e69b6b" d="M 64.671875 51.410156 C 65.058594 51.835938 65.097656 52.488281 64.734375 52.957031 L 60.105469 58.984375 C 59.898438 59.253906 59.585938 59.421875 59.246094 59.453125 C 58.90625 59.480469 58.570312 59.363281 58.320312 59.128906 L 57.734375 58.582031 C 58.972656 58.640625 59.972656 57.402344 59.972656 57.402344 Z M 64.671875 51.410156 " fill-opacity="1" fill-rule="evenodd"/><path fill="#e69b6b" d="M 59 56.457031 C 59 56.457031 59.324219 57.664062 55.003906 53.949219 C 55.457031 53.667969 56.0625 53.710938 56.46875 54.09375 Z M 59 56.457031 " fill-opacity="1" fill-rule="evenodd"/><path fill="#aab6c1" d="M 90.609375 80.65625 C 91.835938 82.285156 93.148438 83.753906 94.558594 85.007812 C 95.734375 86.054688 94.757812 87.824219 92.167969 88.195312 C 85.207031 89.191406 78.21875 89.980469 71.242188 90.875 C 69.523438 91.09375 69.011719 90.828125 66.777344 89.207031 C 57.925781 82.789062 54.136719 64.292969 52.136719 52.308594 C 51.867188 50.699219 53.046875 49.324219 54.773438 49.277344 L 57.113281 49.214844 C 57.539062 50.683594 58.296875 53.074219 59.433594 55.894531 L 59 56.457031 L 56.46875 54.09375 C 56.0625 53.710938 55.457031 53.667969 55.003906 53.949219 C 54.917969 54.003906 54.835938 54.070312 54.761719 54.148438 C 54.308594 54.636719 54.332031 55.402344 54.820312 55.855469 L 57.242188 58.121094 C 57.261719 58.246094 57.28125 58.371094 57.300781 58.503906 C 57.359375 58.894531 57.429688 59.328125 57.507812 59.785156 C 57.65625 60.621094 58.554688 61.339844 59.414062 61.328125 L 61.878906 61.304688 C 62.390625 62.316406 62.945312 63.34375 63.539062 64.371094 L 62.246094 66.058594 L 59.714844 63.691406 C 59.246094 63.253906 58.523438 63.261719 58.0625 63.691406 C 58.046875 63.710938 58.027344 63.730469 58.007812 63.75 C 57.554688 64.234375 57.578125 65 58.066406 65.457031 L 59.070312 66.398438 C 59.074219 66.511719 59.09375 66.632812 59.128906 66.753906 C 59.203125 67.007812 59.59375 68.347656 60.132812 69.890625 C 60.425781 70.730469 61.457031 71.398438 62.328125 71.355469 L 65.4375 71.203125 C 66.222656 71.164062 66.65625 70.472656 66.339844 69.628906 C 66.273438 69.453125 66.003906 68.722656 65.675781 67.746094 C 66.800781 69.378906 68.046875 70.96875 69.417969 72.441406 L 67.519531 74.914062 L 64.988281 72.546875 C 64.5 72.09375 63.738281 72.121094 63.28125 72.605469 C 63.277344 72.609375 63.273438 72.617188 63.265625 72.621094 C 62.828125 73.109375 62.855469 73.863281 63.339844 74.3125 L 64.011719 74.945312 L 63.851562 74.953125 C 62.964844 75.011719 62.523438 75.746094 62.902344 76.5 C 63.621094 77.933594 64.265625 79.019531 64.390625 79.234375 C 64.808594 79.9375 65.941406 80.457031 66.824219 80.378906 L 69.953125 80.105469 C 70.773438 80.03125 71.085938 79.40625 70.667969 78.714844 C 70.554688 78.523438 70.019531 77.636719 69.386719 76.445312 L 71.140625 74.164062 C 71.785156 74.765625 72.453125 75.335938 73.144531 75.875 C 74.050781 76.582031 75 77.230469 75.992188 77.8125 L 76.089844 77.871094 L 74.019531 81.824219 L 73.882812 83.429688 C 73.347656 83.082031 72.589844 82.851562 71.96875 82.910156 L 68.875 83.21875 C 67.960938 83.308594 67.699219 83.917969 68.167969 84.433594 C 69.109375 85.464844 69.921875 86.15625 70.082031 86.296875 C 70.597656 86.734375 71.78125 87.015625 72.628906 86.921875 L 73.597656 86.820312 L 73.574219 87.089844 L 73.949219 86.78125 L 75.59375 86.601562 C 76.46875 86.507812 76.535156 86.042969 76.109375 85.648438 C 76.054688 85.597656 75.925781 85.480469 75.742188 85.300781 L 77.652344 83.726562 L 79.808594 79.609375 C 83.015625 80.765625 86.605469 81.21875 90.609375 80.65625 Z M 90.609375 80.65625 " fill-opacity="1" fill-rule="evenodd"/><path fill="#e28f8a" d="M 74.351562 82.421875 L 76.972656 83.796875 L 74.03125 86.222656 Z M 74.351562 82.421875 " fill-opacity="1" fill-rule="evenodd"/><path fill="#f3e7f2" d="M 89.925781 59.492188 L 86.960938 57.9375 L 88.464844 55.070312 C 88.738281 54.546875 89.421875 54.382812 89.980469 54.675781 L 90.890625 55.148438 C 91.449219 55.441406 91.699219 56.101562 91.429688 56.621094 Z M 89.925781 59.492188 " fill-opacity="1" fill-rule="evenodd"/><path fill="#303e64" d="M 85.136719 70.261719 C 85.917969 72.042969 86.773438 73.78125 87.695312 75.433594 C 89.722656 79.070312 92.09375 82.300781 94.8125 84.722656 C 96.179688 85.941406 95.242188 88.136719 92.226562 88.566406 C 85.265625 89.566406 78.273438 90.355469 71.296875 91.25 C 69.472656 91.484375 68.925781 91.230469 66.558594 89.511719 C 62.96875 86.910156 60.1875 82.355469 58.03125 77.039062 C 54.824219 69.148438 52.972656 59.582031 51.765625 52.371094 C 51.457031 50.53125 52.796875 48.949219 54.765625 48.894531 L 75.691406 48.332031 C 77.464844 48.285156 79.160156 49.636719 79.460938 51.324219 C 80.175781 55.320312 81.289062 59.800781 82.804688 64.242188 L 87.792969 54.714844 C 88.253906 53.839844 89.394531 53.507812 90.332031 54.003906 L 91.242188 54.476562 C 92.183594 54.972656 92.558594 56.097656 92.101562 56.972656 Z M 82.320312 65.164062 C 80.671875 60.460938 79.472656 55.691406 78.714844 51.457031 C 78.472656 50.117188 77.121094 49.050781 75.710938 49.089844 L 54.785156 49.652344 C 53.308594 49.691406 52.28125 50.863281 52.515625 52.246094 C 53.710938 59.410156 55.546875 68.914062 58.730469 76.753906 C 60.832031 81.921875 63.511719 86.367188 67.003906 88.898438 C 69.109375 90.425781 69.578125 90.703125 71.199219 90.496094 C 78.171875 89.605469 85.160156 88.8125 92.117188 87.816406 C 93.277344 87.652344 94.089844 87.195312 94.464844 86.640625 C 94.773438 86.1875 94.738281 85.671875 94.308594 85.289062 C 91.53125 82.816406 89.105469 79.519531 87.03125 75.800781 C 86.195312 74.300781 85.414062 72.730469 84.6875 71.117188 L 82.910156 74.511719 C 82.941406 74.507812 82.96875 74.503906 83 74.5 C 83.207031 74.476562 83.394531 74.621094 83.421875 74.828125 C 83.449219 75.039062 83.300781 75.226562 83.09375 75.253906 C 82.890625 75.28125 82.6875 75.304688 82.480469 75.332031 L 81.589844 77.035156 C 81.617188 77.082031 81.636719 77.132812 81.644531 77.191406 C 81.667969 77.398438 81.523438 77.585938 81.3125 77.613281 L 81.285156 77.617188 L 78.429688 83.0625 C 80.945312 82.765625 84.421875 82.316406 87.867188 81.675781 C 88.074219 81.636719 88.273438 81.773438 88.3125 81.976562 C 88.347656 82.183594 88.214844 82.382812 88.007812 82.421875 C 84.300781 83.109375 80.558594 83.582031 78.003906 83.875 L 77.992188 83.902344 C 77.96875 83.945312 77.9375 83.988281 77.898438 84.019531 L 76.316406 85.320312 C 76.339844 85.339844 76.355469 85.355469 76.367188 85.367188 C 76.726562 85.699219 76.816406 86.082031 76.695312 86.378906 C 76.589844 86.636719 76.28125 86.910156 75.640625 86.976562 L 74.109375 87.144531 L 73.820312 87.382812 C 73.703125 87.476562 73.539062 87.496094 73.402344 87.425781 C 73.324219 87.382812 73.261719 87.316406 73.230469 87.238281 L 72.675781 87.296875 C 71.726562 87.398438 70.414062 87.074219 69.839844 86.582031 C 69.675781 86.441406 68.847656 85.734375 67.890625 84.6875 C 67.527344 84.285156 67.484375 83.839844 67.671875 83.484375 C 67.835938 83.175781 68.21875 82.898438 68.839844 82.839844 L 71.9375 82.53125 C 72.445312 82.480469 73.039062 82.605469 73.558594 82.828125 L 73.644531 81.789062 C 73.648438 81.742188 73.664062 81.691406 73.6875 81.648438 L 75.46875 78.242188 C 74.371094 78.347656 73.457031 78.425781 72.863281 78.476562 C 72.652344 78.496094 72.46875 78.339844 72.453125 78.132812 C 72.433594 77.925781 72.585938 77.742188 72.796875 77.722656 C 73.476562 77.664062 74.574219 77.566406 75.890625 77.441406 L 76.667969 75.953125 C 74.703125 76.132812 72.96875 76.269531 71.667969 76.371094 C 71.460938 76.386719 71.277344 76.230469 71.261719 76.019531 C 71.246094 75.8125 71.402344 75.628906 71.613281 75.613281 C 73.011719 75.507812 74.929688 75.355469 77.089844 75.148438 Z M 77.519531 83.167969 L 89.570312 60.164062 L 86.609375 58.609375 L 74.535156 81.664062 L 77.425781 83.179688 C 77.457031 83.175781 77.488281 83.171875 77.519531 83.167969 Z M 89.925781 59.492188 L 91.429688 56.621094 C 91.699219 56.101562 91.449219 55.441406 90.890625 55.148438 L 89.980469 54.675781 C 89.421875 54.382812 88.738281 54.546875 88.464844 55.070312 L 86.960938 57.9375 Z M 74.351562 82.421875 L 74.265625 83.457031 C 74.265625 83.460938 74.265625 83.460938 74.265625 83.464844 L 74.03125 86.222656 L 75.503906 85.011719 C 75.503906 85.007812 75.507812 85.007812 75.507812 85.003906 L 76.972656 83.796875 Z M 75.171875 86.265625 L 75.558594 86.222656 C 75.714844 86.207031 75.835938 86.179688 75.925781 86.132812 C 75.945312 86.125 75.96875 86.109375 75.980469 86.097656 C 75.964844 86.066406 75.910156 85.980469 75.855469 85.925781 C 75.828125 85.902344 75.785156 85.859375 75.726562 85.808594 Z M 73.488281 83.632812 C 73.042969 83.390625 72.480469 83.242188 72.011719 83.289062 L 68.914062 83.59375 C 68.625 83.621094 68.417969 83.695312 68.339844 83.839844 C 68.285156 83.941406 68.347656 84.058594 68.453125 84.175781 C 69.375 85.1875 70.171875 85.867188 70.332031 86.003906 C 70.789062 86.394531 71.839844 86.625 72.59375 86.542969 L 73.25 86.472656 Z M 56.890625 58.308594 L 54.566406 56.128906 C 53.925781 55.53125 53.890625 54.527344 54.488281 53.886719 C 55.085938 53.25 56.09375 53.214844 56.730469 53.8125 L 58.957031 55.894531 L 62.523438 51.253906 C 63.058594 50.558594 64.054688 50.425781 64.746094 50.960938 C 65.441406 51.496094 65.574219 52.492188 65.039062 53.1875 L 63.125 55.679688 C 63.34375 55.96875 63.488281 56.316406 63.53125 56.6875 C 63.558594 56.929688 63.703125 58.15625 63.980469 59.6875 C 64.179688 60.789062 63.472656 61.671875 62.464844 61.679688 L 59.421875 61.707031 C 58.390625 61.71875 57.3125 60.851562 57.140625 59.851562 C 57.039062 59.285156 56.957031 58.761719 56.890625 58.308594 Z M 62.335938 55.460938 L 64.4375 52.722656 C 64.714844 52.359375 64.648438 51.839844 64.285156 51.5625 C 63.921875 51.285156 63.402344 51.351562 63.125 51.714844 L 59.304688 56.6875 C 59.238281 56.773438 59.140625 56.824219 59.035156 56.832031 C 58.925781 56.84375 58.824219 56.804688 58.746094 56.734375 L 56.214844 54.367188 C 55.878906 54.054688 55.355469 54.074219 55.042969 54.40625 C 54.730469 54.738281 54.75 55.265625 55.082031 55.578125 L 58.585938 58.851562 C 58.753906 59.011719 58.984375 59.089844 59.21875 59.070312 C 59.449219 59.054688 59.664062 58.9375 59.808594 58.75 L 62.328125 55.46875 C 62.332031 55.46875 62.332031 55.464844 62.335938 55.460938 Z M 62.632812 56.316406 L 60.410156 59.214844 C 60.136719 59.566406 59.726562 59.792969 59.28125 59.828125 C 58.835938 59.863281 58.394531 59.710938 58.066406 59.40625 L 57.789062 59.144531 C 57.820312 59.332031 57.851562 59.523438 57.886719 59.71875 C 58.003906 60.386719 58.726562 60.957031 59.414062 60.949219 L 62.457031 60.917969 C 63 60.914062 63.339844 60.414062 63.234375 59.820312 C 62.953125 58.269531 62.808594 57.019531 62.777344 56.773438 C 62.761719 56.613281 62.710938 56.457031 62.632812 56.316406 Z M 58.710938 66.570312 L 57.808594 65.730469 C 57.171875 65.132812 57.136719 64.128906 57.734375 63.488281 C 58.332031 62.847656 59.335938 62.816406 59.976562 63.414062 L 62.203125 65.492188 L 65.769531 60.851562 C 66.300781 60.160156 67.296875 60.027344 67.992188 60.5625 C 68.6875 61.09375 68.816406 62.09375 68.285156 62.785156 L 65.597656 66.285156 C 65.621094 66.339844 65.640625 66.398438 65.660156 66.457031 C 66.140625 67.988281 66.609375 69.253906 66.699219 69.496094 C 66.902344 70.042969 66.847656 70.542969 66.632812 70.910156 C 66.402344 71.292969 65.996094 71.554688 65.457031 71.578125 L 62.347656 71.730469 C 61.328125 71.78125 60.121094 71 59.777344 70.015625 C 59.238281 68.460938 58.84375 67.113281 58.769531 66.859375 C 58.742188 66.761719 58.722656 66.667969 58.710938 66.570312 Z M 64.859375 66 L 67.683594 62.324219 C 67.960938 61.960938 67.894531 61.441406 67.53125 61.164062 C 67.167969 60.882812 66.648438 60.953125 66.371094 61.316406 L 62.550781 66.289062 C 62.484375 66.371094 62.386719 66.425781 62.28125 66.433594 C 62.171875 66.441406 62.066406 66.40625 61.988281 66.332031 L 59.460938 63.96875 C 59.125 63.65625 58.601562 63.671875 58.289062 64.007812 C 57.976562 64.339844 57.992188 64.863281 58.328125 65.175781 L 61.828125 68.453125 C 62 68.609375 62.230469 68.691406 62.464844 68.671875 C 62.695312 68.652344 62.910156 68.535156 63.050781 68.351562 L 64.851562 66.007812 C 64.855469 66.003906 64.855469 66 64.859375 66 Z M 65.039062 67.011719 L 63.652344 68.8125 C 63.378906 69.167969 62.972656 69.390625 62.523438 69.429688 C 62.078125 69.464844 61.636719 69.3125 61.3125 69.003906 L 59.773438 67.566406 C 59.953125 68.144531 60.199219 68.921875 60.492188 69.765625 C 60.734375 70.460938 61.589844 71.007812 62.3125 70.972656 L 65.421875 70.820312 C 65.671875 70.808594 65.871094 70.703125 65.976562 70.523438 C 66.09375 70.324219 66.097656 70.054688 65.988281 69.757812 C 65.90625 69.53125 65.488281 68.410156 65.039062 67.011719 Z M 65.808594 59.648438 C 65.597656 59.648438 65.429688 59.480469 65.429688 59.269531 C 65.429688 59.058594 65.597656 58.890625 65.808594 58.890625 C 67.753906 58.890625 71.015625 58.890625 73.851562 58.867188 C 74.0625 58.863281 74.234375 59.03125 74.234375 59.242188 C 74.238281 59.449219 74.066406 59.621094 73.859375 59.625 C 71.019531 59.648438 67.757812 59.648438 65.808594 59.648438 Z M 78.191406 85.492188 C 77.980469 85.515625 77.792969 85.367188 77.769531 85.160156 C 77.746094 84.949219 77.894531 84.761719 78.101562 84.738281 C 79.609375 84.566406 82.960938 84.171875 86.222656 83.621094 C 86.429688 83.585938 86.625 83.726562 86.660156 83.933594 C 86.695312 84.136719 86.554688 84.335938 86.347656 84.367188 C 83.070312 84.921875 79.703125 85.316406 78.191406 85.492188 Z M 69.839844 76.480469 C 70.417969 77.554688 70.890625 78.339844 71 78.515625 C 71.289062 79 71.296875 79.460938 71.117188 79.8125 C 70.9375 80.160156 70.558594 80.429688 69.992188 80.480469 L 66.859375 80.753906 C 65.84375 80.84375 64.546875 80.234375 64.070312 79.425781 C 63.941406 79.210938 63.289062 78.113281 62.566406 76.667969 C 62.308594 76.15625 62.347656 75.652344 62.582031 75.265625 C 62.722656 75.035156 62.941406 74.839844 63.222656 74.71875 L 63.082031 74.585938 C 62.445312 73.988281 62.410156 72.984375 63.007812 72.34375 C 63.605469 71.707031 64.609375 71.671875 65.25 72.269531 L 67.476562 74.351562 L 71.042969 69.710938 C 71.171875 69.539062 71.332031 69.402344 71.507812 69.300781 C 70.269531 69.359375 69.21875 69.402344 68.53125 69.429688 C 68.324219 69.441406 68.148438 69.277344 68.136719 69.066406 C 68.128906 68.859375 68.292969 68.683594 68.5 68.671875 C 70.058594 68.609375 73.492188 68.464844 76.757812 68.253906 C 76.96875 68.242188 77.148438 68.402344 77.160156 68.609375 C 77.175781 68.820312 77.015625 69 76.808594 69.011719 C 75.507812 69.09375 74.179688 69.167969 72.953125 69.230469 C 73.0625 69.28125 73.167969 69.34375 73.265625 69.417969 C 73.960938 69.953125 74.089844 70.949219 73.558594 71.644531 Z M 63.878906 75.332031 C 63.578125 75.351562 63.347656 75.46875 63.230469 75.660156 C 63.117188 75.84375 63.121094 76.085938 63.242188 76.328125 C 63.957031 77.75 64.59375 78.828125 64.722656 79.039062 C 65.074219 79.636719 66.042969 80.066406 66.792969 80 L 69.921875 79.722656 C 70.175781 79.703125 70.363281 79.621094 70.441406 79.46875 C 70.519531 79.3125 70.476562 79.117188 70.347656 78.90625 C 70.25 78.746094 69.847656 78.074219 69.335938 77.140625 L 68.925781 77.671875 C 68.652344 78.023438 68.246094 78.246094 67.796875 78.285156 C 67.351562 78.320312 66.910156 78.167969 66.585938 77.863281 Z M 69.09375 76.207031 L 72.957031 71.179688 C 73.234375 70.816406 73.167969 70.296875 72.804688 70.019531 C 72.441406 69.742188 71.921875 69.808594 71.644531 70.171875 L 67.824219 75.144531 C 67.757812 75.230469 67.660156 75.28125 67.554688 75.289062 C 67.445312 75.300781 67.339844 75.261719 67.261719 75.191406 L 64.734375 72.824219 C 64.398438 72.511719 63.875 72.527344 63.5625 72.863281 C 63.25 73.195312 63.265625 73.722656 63.601562 74.035156 L 67.101562 77.308594 C 67.273438 77.46875 67.503906 77.546875 67.738281 77.527344 C 67.96875 77.507812 68.183594 77.394531 68.324219 77.207031 L 69.085938 76.21875 C 69.089844 76.214844 69.089844 76.210938 69.09375 76.207031 Z M 65.449219 57.253906 C 65.242188 57.253906 65.074219 57.082031 65.074219 56.875 C 65.074219 56.664062 65.246094 56.496094 65.457031 56.496094 C 68.292969 56.515625 72.535156 56.546875 76.40625 56.523438 C 76.617188 56.523438 76.789062 56.691406 76.789062 56.902344 C 76.789062 57.113281 76.621094 57.28125 76.414062 57.285156 C 72.535156 57.304688 68.292969 57.273438 65.449219 57.253906 Z M 67.683594 67.019531 C 67.472656 67.027344 67.296875 66.859375 67.292969 66.652344 C 67.285156 66.441406 67.449219 66.269531 67.660156 66.261719 C 70.125 66.1875 74.5 66.054688 78.789062 65.796875 C 78.996094 65.78125 79.175781 65.941406 79.191406 66.152344 C 79.203125 66.359375 79.042969 66.539062 78.835938 66.550781 C 74.539062 66.8125 70.152344 66.945312 67.683594 67.019531 Z M 67.683594 67.019531 " fill-opacity="1" fill-rule="evenodd"/></svg>